<svg width="648" height="432" viewBox="0 0 648 432" fill="none" xmlns="http://www.w3.org/2000/svg">
<path d="M212.249 119.148C218.766 119.187 250.913 118.328 254.411 120.097C255.515 122.465 255.039 159.204 255.035 164.601C260.46 164.492 294.889 164.201 296.943 165.081C297.127 165.421 297.295 165.766 297.425 166.13C298.654 169.558 298.484 205.742 298.071 211.408C297.966 212.854 297.754 214.245 297.11 215.556C295.451 216.471 259.618 216.145 255.041 216.053C255.044 220.964 255.451 258.878 254.441 260.364C252.305 261.56 247.472 261.215 244.819 261.198C238.022 261.269 206.384 261.89 202.518 260.639C201.01 258.833 201.476 245.353 201.478 242.101C201.428 233.432 201.479 224.763 201.631 216.096L176.729 216.13C172.874 216.136 162.46 216.452 159.396 215.531C158.171 214.231 158.429 203.756 158.437 201.36C158.474 190.081 158.304 178.769 158.534 167.494C158.578 165.367 160.036 164.835 161.903 164.727C166.433 164.464 171.021 164.578 175.565 164.584C184.213 164.624 192.86 164.613 201.507 164.549C201.556 159.224 200.939 121.746 202.252 119.982C204.596 118.76 209.29 119.292 212.249 119.148ZM162.972 168.99C163.291 177.085 163.061 186.259 163.096 194.437C163.116 199.197 163.35 207.772 162.979 212.148C171.417 212.06 179.855 212.023 188.293 212.039C191.416 212.037 203.91 211.594 205.479 213.024C206.256 216.039 206.014 226.352 206.016 229.983L205.987 257.622C210.721 257.433 215.57 257.476 220.313 257.552C230.093 257.709 239.955 257.378 249.724 257.6L250.42 257.449C250.781 256.424 250.534 251.652 250.53 250.226L250.507 227.288C250.506 223.201 250.162 218.796 250.736 214.76C250.841 214.022 250.932 213.145 251.67 212.808C254.969 211.304 287.57 211.967 293.606 212.08C293.484 203.66 293.449 195.239 293.501 186.818C293.501 180.887 293.359 174.214 293.567 168.333C288.803 168.353 282.824 168.276 278.148 168.428C273.463 168.58 254.603 169.816 251.363 168.21C250.034 165.386 250.497 128.732 250.596 122.952C237.7 123.27 224.704 122.916 211.799 123.025C209.898 123.041 207.898 123.05 206.003 122.988L206.009 150.244C206.01 154.821 206.284 159.56 205.948 164.112C205.871 165.158 205.727 167.36 204.995 168.151C203.729 169.522 167.611 168.948 162.972 168.99Z" fill="#E58F28"/>
<path d="M455.426 140.34C452.92 138.904 440.549 130.179 439.156 127.186C438.96 126.761 439.226 126.459 439.451 125.972C440.58 125.039 441.84 124.344 443.165 123.725C448.152 121.396 494.369 102.025 495.705 102.177C496.138 102.227 496.606 102.492 496.901 102.822C497.568 103.563 497.068 105.438 496.885 106.332C495.395 113.626 492.87 120.848 490.892 128.04C487.984 138.606 485.425 149.451 482.02 159.856C481.704 160.826 481.406 161.678 480.754 162.481C478.521 163.316 474.477 158.187 472.93 156.519C470.417 153.809 467.946 150.997 465.456 148.261L412.395 219.149C410.095 222.198 395.847 240.227 395.268 241.755C395.853 244.568 396.359 246.572 396.182 249.475C395.783 256.031 391.015 261.025 384.586 262.259C380.469 263.049 376.207 262.155 372.755 259.777C367.152 255.85 365.003 248.425 367.725 242.131C359.9 235.328 349.756 228.721 341.96 222.091C340.536 223.16 339.061 224.364 337.4 225.013C332.224 227.035 325.978 226.434 321.52 223.048C319.242 226.694 314.835 231.257 311.831 234.581L297.441 250.582C282.196 267.668 265.889 287.046 250.033 303.335C249.133 302.385 248.11 301.558 246.992 300.878L290.141 252.245C299.722 241.652 309.186 230.954 318.533 220.155C316.087 215.932 314.982 209.774 317.274 205.337C326.472 187.523 353.483 199.734 344.235 218.789C348.75 221.818 353.442 225.58 357.777 228.926C361.514 231.809 366.535 235.299 369.794 238.512C374.47 232.799 379.561 233.323 386.155 233.658C388.917 228.75 397.521 218.151 401.27 213.178L438.188 163.816L448.642 149.913C450.661 147.228 453.825 143.159 455.426 140.34ZM445.225 127.364C449.196 130.542 457.521 136.142 460.485 139.618C458.293 145.494 451.101 153.95 447.029 159.332L434.534 176.052L399.963 222.135C396.54 226.609 393.129 231.344 389.626 235.718C390.392 236.242 391.964 237.26 392.619 237.805C399.194 229.523 405.874 220.364 412.265 211.865L447.038 165.528C451.806 159.174 458.634 149.468 463.76 143.632C466.57 140.435 476.147 155.182 478.552 155.451C479.489 153.776 481.742 145.165 482.336 143.011L488.532 120.598C489.664 116.506 490.848 111.591 492.262 107.657C489.715 109.15 480.216 112.899 477.138 114.191C466.545 118.684 455.907 123.076 445.225 127.364ZM333.654 221.832C337.024 220.973 339.761 218.525 340.985 215.272C341.9 212.844 341.9 210.166 340.979 207.74C339.036 202.618 333.524 199.808 328.237 201.244C322.599 202.777 319.248 208.572 320.738 214.226C322.225 219.879 327.99 223.274 333.654 221.832ZM382.498 258.331C387.851 257.825 391.955 253.344 391.99 247.962C392.009 244.993 390.768 242.155 388.576 240.153C386.383 238.151 383.447 237.173 380.492 237.463C374.739 238.026 370.528 243.143 371.082 248.898C371.632 254.653 376.742 258.874 382.498 258.331Z" fill="#E58F28"/>
<path d="M455.426 140.34C452.92 138.904 440.549 130.179 439.156 127.186C438.96 126.761 439.226 126.459 439.451 125.972C440.58 125.039 441.84 124.344 443.165 123.725C448.152 121.396 494.369 102.025 495.705 102.177C496.138 102.227 496.606 102.492 496.901 102.822C497.568 103.563 497.068 105.438 496.885 106.332C495.395 113.626 492.87 120.848 490.892 128.04C487.984 138.606 485.425 149.451 482.02 159.856C481.704 160.826 481.406 161.678 480.754 162.481C478.521 163.316 474.477 158.187 472.93 156.519C470.417 153.809 467.946 150.997 465.456 148.261L412.395 219.149C410.095 222.198 395.847 240.227 395.268 241.755C394.825 240.716 393.436 238.576 392.619 237.805C399.194 229.523 405.874 220.364 412.265 211.865L447.038 165.528C451.806 159.174 458.634 149.468 463.76 143.632C466.57 140.435 476.148 155.182 478.552 155.451C479.489 153.776 481.742 145.165 482.336 143.011L488.532 120.598C489.664 116.506 490.848 111.591 492.262 107.657C489.715 109.15 480.217 112.899 477.138 114.191C466.545 118.684 455.907 123.076 445.225 127.364C449.196 130.542 457.521 136.142 460.485 139.618C458.293 145.494 451.101 153.95 447.029 159.332L434.534 176.052L399.963 222.135C396.54 226.609 393.129 231.344 389.626 235.718C388.133 235.063 387.323 234.807 386.155 233.658C388.917 228.75 397.521 218.151 401.27 213.178L438.188 163.816L448.642 149.913C450.661 147.228 453.825 143.159 455.426 140.34Z" fill="#E58F28"/>
<path d="M250.033 303.335C255.359 308.962 255.412 317.756 250.153 323.446C244.895 329.137 236.126 329.773 230.1 324.905C224.073 320.034 222.854 311.326 227.31 304.988C231.766 298.65 240.372 296.852 246.992 300.878C248.11 301.558 249.133 302.384 250.033 303.335ZM241.597 323.49C247.09 322.266 250.558 316.825 249.351 311.326C248.144 305.827 242.718 302.34 237.216 303.529C231.688 304.724 228.181 310.183 229.394 315.708C230.607 321.234 236.077 324.722 241.597 323.49Z" fill="#E58F28"/>
</svg>
