<svg width="40" height="40" viewBox="0 0 40 40" fill="none" xmlns="http://www.w3.org/2000/svg">
<g clip-path="url(#clip0_4054_7332)">
<mask id="mask0_4054_7332" style="mask-type:luminance" maskUnits="userSpaceOnUse" x="0" y="0" width="40" height="40">
<path d="M0 0H40V40H0V0Z" fill="white"/>
</mask>
<g mask="url(#mask0_4054_7332)">
<path d="M37.5264 20.0226C37.5264 20.3306 37.3257 20.5892 37.0491 20.6823L37.0486 20.683C37.0482 20.683 37.0475 20.683 37.0471 20.683C36.9775 20.7061 36.9046 20.7217 36.8273 20.7217H33.8306C28.9609 21.1106 25.3313 22.9268 24.1311 24.1268C22.9017 25.3563 21.0244 29.3008 20.7171 34.1323V36.8319C20.7171 37.2181 20.404 37.531 20.018 37.531C19.632 37.531 19.3189 37.2181 19.3189 36.8319V34.1323C19.0115 29.3008 17.1342 25.3563 15.9049 24.1268C14.7049 22.9268 11.0751 21.1106 6.20552 20.7217H3.20864C3.1313 20.7217 3.05841 20.7061 2.98885 20.683C2.98841 20.683 2.98797 20.683 2.9873 20.683L2.98686 20.6823C2.71019 20.5892 2.50952 20.3306 2.50952 20.0226C2.50952 19.7146 2.71019 19.4559 2.98686 19.3628L2.9873 19.3621C2.98797 19.3621 2.98841 19.3621 2.98885 19.3621C3.05841 19.339 3.1313 19.3235 3.20864 19.3235H6.20552C11.0751 18.9346 14.7049 17.1183 15.9049 15.9183C17.1342 14.6888 19.0115 10.7443 19.3189 5.91279V3.21323C19.3189 2.82701 19.632 2.51412 20.018 2.51412C20.404 2.51412 20.7171 2.82701 20.7171 3.21323V5.91279C21.0244 10.7443 22.9017 14.6888 24.1311 15.9183C25.3313 17.1183 28.9609 18.9346 33.8306 19.3235H36.8273C36.9046 19.3235 36.9775 19.339 37.0471 19.3621C37.0475 19.3621 37.0482 19.3621 37.0486 19.3621L37.0491 19.3628C37.3257 19.4559 37.5264 19.7146 37.5264 20.0226Z" fill="#DFDAFA"/>
</g>
</g>
<defs>
<clipPath id="clip0_4054_7332">
<rect width="40" height="40" fill="white"/>
</clipPath>
</defs>
</svg>
