<svg width="24" height="24" viewBox="0 0 24 24" fill="none" xmlns="http://www.w3.org/2000/svg">
<path d="M15 8C14.7348 8 14.4804 7.89465 14.2929 7.70711C14.1054 7.51957 14 7.26522 14 7V2C14.3166 1.99949 14.6301 2.06161 14.9225 2.18277C15.215 2.30394 15.4806 2.48176 15.704 2.706L19.292 6.294C19.5168 6.51751 19.6952 6.78335 19.8167 7.07616C19.9382 7.36898 20.0005 7.68297 20 8H15Z" stroke="white" stroke-width="2" stroke-linecap="round" stroke-linejoin="round"/>
<path d="M20.0004 8V20C20.0004 20.5304 19.7896 21.0391 19.4146 21.4142C19.0395 21.7893 18.5308 22 18.0004 22H13.8184" stroke="white" stroke-width="2" stroke-linecap="round" stroke-linejoin="round"/>
<path d="M3.30469 19.5299L4.22769 19.1479" stroke="white" stroke-width="2" stroke-linecap="round" stroke-linejoin="round"/>
<path d="M4 10.592V4C4 3.46957 4.21071 2.96086 4.58579 2.58579C4.96086 2.21071 5.46957 2 6 2H14" stroke="white" stroke-width="2" stroke-linecap="round" stroke-linejoin="round"/>
<path d="M4.22771 16.852L3.30371 16.469" stroke="white" stroke-width="2" stroke-linecap="round" stroke-linejoin="round"/>
<path d="M5.85175 15.2279L5.46875 14.3049" stroke="white" stroke-width="2" stroke-linecap="round" stroke-linejoin="round"/>
<path d="M5.85175 20.772L5.46875 21.696" stroke="white" stroke-width="2" stroke-linecap="round" stroke-linejoin="round"/>
<path d="M8.14844 15.2279L8.53144 14.3049" stroke="white" stroke-width="2" stroke-linecap="round" stroke-linejoin="round"/>
<path d="M8.53044 21.696L8.14844 20.772" stroke="white" stroke-width="2" stroke-linecap="round" stroke-linejoin="round"/>
<path d="M9.77344 16.852L10.6954 16.469" stroke="white" stroke-width="2" stroke-linecap="round" stroke-linejoin="round"/>
<path d="M9.77344 19.1479L10.6954 19.5309" stroke="white" stroke-width="2" stroke-linecap="round" stroke-linejoin="round"/>
<path d="M7 21C8.65685 21 10 19.6569 10 18C10 16.3431 8.65685 15 7 15C5.34315 15 4 16.3431 4 18C4 19.6569 5.34315 21 7 21Z" stroke="white" stroke-width="2" stroke-linecap="round" stroke-linejoin="round"/>
</svg>
