<svg width="571" height="392" viewBox="0 0 571 392" fill="none" xmlns="http://www.w3.org/2000/svg">
<path d="M569.167 1.6408C565.26 13.7544 562.788 19.3147 557.562 30.1872C551.909 37.3858 547.738 45.0644 541.952 52.2631C518.677 81.2728 476.33 123.968 434.362 112.864C433.95 114.8 439.901 116.372 441.384 117.183C450.978 122.413 458.709 120.741 466.259 122.479C467.346 122.727 468.385 121.42 467.132 123.886C464.495 129.065 457.621 136.827 453.286 141.179C413.411 181.26 327.448 240.984 303.151 244.542C279.876 245.551 267.266 245.154 246.859 237.889C245.491 239.428 249.315 240.653 250.304 241.447C263.606 252.253 278.705 251.955 293.739 256.258C233.836 298.987 181.896 325.878 143.027 319.706C142.532 321.46 144.576 321.294 145.483 321.675C153.066 324.885 160.319 327.103 168.363 327.715C162.577 335.162 151.928 334.814 143.472 331.885C128.884 326.805 111.889 308.188 94.103 315.072C80.7511 320.235 58.7946 349.03 45.5581 362.285C41.1075 366.737 36.0469 373.753 31.0523 377.659C29.1896 379.099 1.71108 392.387 1.16711 390.881C49.712 346.465 90.1798 290.216 136.351 245.154C190.303 192.496 302.063 105.119 398.823 59.23C401.461 57.9889 414.681 52.9085 415.785 51.8659C416.131 51.5349 428.049 46.4214 427.291 46.107C319.404 85.41 137.076 205.867 70.6795 302.958C106.515 215.085 211.451 117.498 286.469 69.9701C331.503 41.4403 394.933 14.6977 449.379 6.45644C482.924 1.37601 535.606 0.0355832 569.167 1.6408Z" stroke="#E58F28" stroke-width="2" stroke-miterlimit="10"/>
</svg>
