<svg width="648" height="432" viewBox="0 0 648 432" fill="none" xmlns="http://www.w3.org/2000/svg">
<path d="M178.446 91.4013C186.874 91.4511 228.445 90.3416 232.969 92.6261C234.396 95.6849 233.781 143.143 233.775 150.115C240.791 149.974 285.312 149.598 287.969 150.735C288.207 151.174 288.424 151.62 288.593 152.09C290.181 156.518 289.961 203.259 289.428 210.579C289.291 212.446 289.017 214.243 288.185 215.936C286.039 217.119 239.702 216.697 233.784 216.578C233.787 222.922 234.314 271.899 233.007 273.818C230.245 275.362 223.995 274.917 220.565 274.895C211.775 274.987 170.862 275.789 165.862 274.174C163.912 271.841 164.515 254.427 164.517 250.227C164.454 239.029 164.519 227.83 164.716 216.634L132.514 216.678C127.529 216.686 114.061 217.094 110.1 215.904C108.515 214.225 108.849 200.693 108.859 197.599C108.907 183.029 108.687 168.417 108.985 153.851C109.041 151.105 110.927 150.417 113.341 150.278C119.199 149.939 125.132 150.086 131.009 150.094C142.191 150.145 153.374 150.13 164.556 150.048C164.618 143.17 163.821 94.756 165.519 92.4781C168.55 90.9 174.62 91.586 178.446 91.4013ZM114.724 155.784C115.137 166.242 114.838 178.093 114.884 188.656C114.911 194.805 115.212 205.882 114.733 211.534C125.644 211.42 136.556 211.373 147.468 211.394C151.507 211.391 167.663 210.819 169.691 212.666C170.697 216.56 170.384 229.883 170.386 234.572L170.349 270.276C176.47 270.032 182.741 270.088 188.874 270.186C201.522 270.388 214.274 269.961 226.907 270.248L227.807 270.053C228.274 268.728 227.955 262.565 227.95 260.722L227.92 231.092C227.919 225.812 227.474 220.123 228.217 214.908C228.352 213.955 228.47 212.822 229.424 212.387C233.69 210.444 275.848 211.301 283.653 211.446C283.496 200.569 283.451 189.692 283.518 178.814C283.518 171.153 283.335 162.533 283.603 154.937C277.443 154.962 269.711 154.863 263.664 155.059C257.606 155.255 233.217 156.851 229.027 154.777C227.309 151.13 227.907 103.781 228.035 96.314C211.359 96.7249 194.552 96.2674 177.865 96.4085C175.406 96.4293 172.821 96.4416 170.37 96.3606L170.378 131.569C170.379 137.481 170.733 143.604 170.298 149.483C170.198 150.834 170.012 153.679 169.066 154.701C167.429 156.471 120.723 155.731 114.724 155.784Z" fill="#E58F28"/>
<path d="M492.689 118.502C489.444 116.646 473.427 105.368 471.624 101.5C471.37 100.951 471.714 100.56 472.005 99.9305C473.468 98.7258 475.098 97.8267 476.815 97.0266C483.271 94.0163 543.11 68.9799 544.839 69.1763C545.4 69.2401 546.006 69.5825 546.387 70.0091C547.252 70.9671 546.604 73.3912 546.367 74.5464C544.437 83.9731 541.168 93.3087 538.608 102.604C534.843 116.261 531.529 130.278 527.121 143.726C526.711 144.98 526.326 146.082 525.482 147.119C522.59 148.199 517.355 141.569 515.351 139.413C512.099 135.911 508.899 132.276 505.675 128.741L436.975 220.364C433.997 224.304 415.55 247.608 414.8 249.582C415.558 253.218 416.213 255.808 415.984 259.56C415.468 268.034 409.294 274.489 400.97 276.084C395.64 277.105 390.122 275.949 385.653 272.876C378.398 267.8 375.616 258.203 379.139 250.068C369.008 241.275 355.874 232.735 345.78 224.166C343.937 225.548 342.028 227.104 339.877 227.942C333.175 230.557 325.088 229.779 319.316 225.403C316.367 230.115 310.662 236.014 306.773 240.309L288.141 260.991C268.403 283.075 247.289 308.122 226.76 329.175C225.595 327.946 224.271 326.878 222.823 325.999L278.689 263.141C291.094 249.449 303.348 235.622 315.449 221.663C312.283 216.205 310.852 208.247 313.819 202.511C325.728 179.486 360.7 195.269 348.726 219.898C354.572 223.813 360.647 228.675 366.259 233.001C371.097 236.727 377.599 241.238 381.818 245.39C387.873 238.006 394.465 238.683 403.002 239.116C406.578 232.773 417.717 219.073 422.571 212.646L470.371 148.845L483.906 130.875C486.519 127.405 490.616 122.146 492.689 118.502ZM479.481 101.731C484.623 105.839 495.401 113.076 499.239 117.569C496.4 125.164 487.089 136.093 481.816 143.049L465.639 164.66L420.879 224.223C416.447 230.006 412.031 236.125 407.496 241.779C408.487 242.457 410.523 243.773 411.371 244.477C419.884 233.772 428.532 221.934 436.807 210.948L481.829 151.058C488.002 142.846 496.843 130.3 503.479 122.757C507.117 118.624 519.518 137.686 522.631 138.033C523.844 135.868 526.76 124.738 527.531 121.954L535.552 92.9851C537.018 87.6968 538.55 81.3433 540.382 76.2587C537.084 78.189 524.786 83.0339 520.8 84.7041C507.084 90.5119 493.312 96.1876 479.481 101.731ZM335.027 223.831C339.39 222.721 342.933 219.556 344.519 215.353C345.703 212.215 345.703 208.753 344.511 205.617C341.995 198.998 334.859 195.365 328.013 197.221C320.713 199.203 316.375 206.693 318.305 214C320.23 221.307 327.694 225.696 335.027 223.831ZM398.266 271.006C405.198 270.353 410.511 264.561 410.556 257.605C410.581 253.767 408.975 250.099 406.136 247.511C403.297 244.924 399.495 243.66 395.669 244.034C388.221 244.762 382.769 251.375 383.486 258.814C384.198 266.253 390.814 271.708 398.266 271.006Z" fill="#E58F28"/>
<path d="M492.622 118.664C489.373 116.802 473.335 105.487 471.531 101.606C471.276 101.055 471.621 100.664 471.912 100.032C473.377 98.823 475.009 97.9209 476.728 97.1182C483.192 94.098 543.105 68.9793 544.836 69.1763C545.398 69.2403 546.005 69.5838 546.387 70.0118C547.252 70.973 546.604 73.4051 546.366 74.564C544.434 84.0218 541.161 93.388 538.598 102.714C534.828 116.415 531.51 130.479 527.096 143.971C526.686 145.229 526.301 146.335 525.456 147.375C522.56 148.459 517.318 141.807 515.312 139.644C512.055 136.13 508.852 132.484 505.624 128.936L436.839 220.861C433.857 224.814 415.387 248.194 414.636 250.175C414.062 248.828 412.261 246.053 411.203 245.053C419.726 234.313 428.385 222.436 436.67 211.414L481.748 151.327C487.929 143.088 496.781 130.501 503.426 122.933C507.068 118.787 519.484 137.911 522.601 138.259C523.815 136.087 526.735 124.921 527.507 122.127L535.538 93.0634C537.006 87.7577 538.54 81.3833 540.374 76.282C537.072 78.2187 524.758 83.0795 520.767 84.7552C507.035 90.5821 493.245 96.2764 479.398 101.838C484.545 105.959 495.337 113.221 499.18 117.728C496.338 125.348 487.015 136.313 481.736 143.292L465.538 164.974L420.723 224.733C416.285 230.534 411.863 236.674 407.323 242.347C405.387 241.498 404.337 241.165 402.823 239.675C406.404 233.31 417.557 219.566 422.417 213.117L470.276 149.106L483.828 131.077C486.445 127.596 490.546 122.32 492.622 118.664Z" fill="#E58F28"/>
<path d="M226.621 329.114C233.497 336.377 233.565 347.728 226.775 355.073C219.986 362.418 208.665 363.239 200.884 356.956C193.104 350.669 191.529 339.429 197.282 331.247C203.036 323.066 214.148 320.746 222.694 325.942C224.138 326.82 225.458 327.887 226.621 329.114ZM215.728 355.13C222.821 353.549 227.298 346.527 225.74 339.429C224.182 332.33 217.176 327.83 210.072 329.364C202.935 330.906 198.407 337.953 199.973 345.085C201.539 352.217 208.601 356.719 215.728 355.13Z" fill="#E58F28"/>
</svg>
