<svg width="648" height="432" viewBox="0 0 648 432" fill="none" xmlns="http://www.w3.org/2000/svg">
<path d="M276.318 48.333C265.202 53.9247 254.574 60.0078 244.978 68.0351C242.098 70.4518 239.289 72.9504 236.552 75.5288C236.188 75.8788 232.419 79.5465 232.438 79.5412C229.211 80.3846 227.423 78.9468 228.354 84.6894C226.499 88.6391 224.041 92.2853 221.978 96.1499C217.498 104.553 213.296 112.88 209.774 121.747C208.793 124.215 206.556 128.821 206.48 131.331C206.117 143.139 208.382 155.538 209.281 167.157C209.388 165.681 209.334 165.518 210.663 165.019C211.628 165.465 211.249 165.135 211.815 166.076C214.071 160.045 217.071 149.006 218.915 142.591C221.652 145.761 224.183 149.11 226.708 152.448C232.717 160.382 239.061 168.057 245.006 176.037C246.196 175.861 247.718 177.155 248.047 178.263C248.025 179.551 248.211 179.132 247.502 180.039C246.291 180.406 245.072 180.067 244.177 179.183C235.178 186.535 226.161 192.606 217.137 199.627C217.779 200.523 217.51 200.235 218.798 200.612C226.569 193.946 237.643 186.312 246.022 180.128C244.8 196.305 244.408 213.631 242.269 229.644C234.58 222.243 227.17 212.792 219.719 205.669L218.757 206.495C223.199 211.651 227.949 216.657 232.559 221.669C235.409 224.765 238.773 227.733 241.355 231.04C232.894 231.244 224.019 232.25 216.001 232.346C219.165 233.037 219.656 231.922 223.696 232.869C223.104 232.995 222.544 233.065 221.949 233.152L221.775 233.419C228.104 233.286 234.368 232.648 240.608 232.532C238.27 235.859 235.764 237.415 233.122 239.978C227.914 245.03 214.568 255.509 210.866 260.793C208.119 257.823 205.076 255.954 202.351 252.884C203.509 249.808 204.977 244.989 206.18 242.207C205.958 241.197 205.806 241.067 205.221 240.182C204.177 242.653 201.181 251.652 200.959 253.966C203.348 256.037 207.638 259.973 210.125 261.712C207.676 264.125 205.382 267.238 203.253 269.982C205.708 275.761 209.961 279.52 212.53 284.202C210.869 294.475 206.686 305.271 205.221 314.793C205.702 316.065 206.885 319.788 207.974 319.99C218.311 321.924 232.824 321.826 243.098 322.376C255.046 323.019 266.306 323.972 277.802 324.247C279.172 326.864 282.396 337.777 283.237 341.052C285.525 349.945 289.559 361.351 291.375 370.143C289.784 375.277 282.605 386.521 279.978 391.664C278.922 393.731 274.372 401.807 273.252 403.298C284.285 402.991 297.45 399.64 308.657 398.427C316.609 397.57 325.19 396.38 332.974 394.494C337.608 392.794 348.245 386.968 352.984 384.508L367.685 376.789C369.736 375.701 373.854 373.631 375.636 372.384L374.328 371.593C360.525 378.47 347.592 385.863 333.401 392.718C335.632 374.678 336.409 355.462 338.1 337.083L341.778 339.527L342.669 338.416C341.494 337.438 340.33 336.45 339.177 335.447C344.67 330.671 351.047 328.244 356.335 324.329C359.3 322.57 362.229 320.75 365.119 318.87C364.449 318.262 364.417 318.262 363.494 318.139C360.877 319.807 358.248 321.455 355.609 323.085C350.152 326.393 344.295 330.298 338.657 333.096C340.728 328.383 342.486 322.949 344.203 318.056L352.862 293.474C354.173 289.835 355.763 285.117 357.332 281.645L357.194 279.904L356.507 279.438C354.839 283.024 352.656 289.907 351.255 293.897L342.662 318.151C341.272 322.136 338.928 330.016 336.761 332.966C327.629 323.022 318.849 312.647 310.04 302.402C308.983 301.174 309.274 300.296 309.502 298.821C310.803 296.589 338.231 281.331 342.695 278.665C342.461 277.901 342.608 278.169 341.772 277.645C330.996 283.942 318.029 290.778 307.73 297.191C302.851 294.477 299.545 289.687 295.59 285.793C280.874 271.306 267.322 255.65 253.033 240.741C250.087 237.666 247.309 234.566 244.155 231.694C248.268 228.239 251.878 226.591 256.188 223.833C264.133 218.746 273.878 213.931 281.636 208.794L280.175 208.1C268.23 214.613 255.868 223.012 244.016 229.289C244.187 228.034 244.25 226.846 244.297 225.582C244.731 213.683 246.392 201.878 246.692 189.966C246.759 187.22 246.946 184.22 247.832 181.614C248.154 181.284 248.518 180.847 248.961 180.692C250.502 180.152 276.4 194.446 280.279 196.304L281.402 195.133C277.067 193.03 252.097 180.557 249.86 178.332C250.442 174.238 271.73 155.893 275.599 151.677C276.144 151.086 277.988 149.485 278.684 148.892C278.744 147.941 278.89 148.109 278.447 147.528L277.004 147.505L277.011 147.783C276.28 149.389 250.572 173.748 247.876 176.061C244.364 173.133 222.877 145.59 220.697 141.411C229.037 141.301 237.501 143.21 245.645 143.912C256.166 144.818 266.208 145.94 276.7 147.185C277.915 146.103 277.653 146.643 277.814 145.199C274.191 145.635 224.136 140.362 222.699 139.499C222.468 139.359 222.329 139.257 222.288 138.984C222.161 138.194 222.275 137.668 222.633 136.957C224.348 133.53 227.145 130.304 229.391 127.19C236.178 117.788 243.617 108.754 250.173 99.2087L249.195 98.3919C247.733 99.7518 243.399 105.837 241.978 107.766L228.107 126.653C225.914 129.646 222.405 134.711 220.054 137.302C221.87 131.553 223.342 123.806 224.747 117.689C227.379 106.689 229.866 95.6552 232.204 84.5894C232.66 83.7909 232.631 83.8124 232.777 82.8908C232.967 82.4234 233.169 81.9623 233.388 81.5081C234.274 79.6874 238.055 76.208 239.605 74.7803C249.262 65.8795 266.237 53.8044 278.684 49.2578C277.703 48.7517 277.517 49.2629 276.318 48.333ZM307.993 379.271C305.484 378.081 296.074 372.394 293.983 370.732C304.37 363.285 315.065 353.139 325.414 345.356C327.927 343.467 333.664 338.558 336.171 337.169C336.806 343.252 334.963 357.8 334.377 364.326C333.529 373.786 333.364 384.211 332.231 393.49C324.933 388.778 315.675 383.939 307.993 379.271ZM307.616 302.111C310.202 305.075 334.446 332.735 334.955 334.412C333.394 338.09 313.34 353.025 308.746 357.066C303.769 360.937 298.112 365.564 293.21 369.615C296.783 361.389 305.841 303.634 307.616 302.111ZM284.585 276.635C281.007 277.296 275.134 281.133 271.628 282.915C267.502 285.234 254.419 292.808 250.505 293.971L246.075 257.333C245.468 252.42 244.924 247.499 244.443 242.571C244.234 240.568 243.259 235.593 244.351 234.123C247.544 236.227 252.318 242.231 255.16 245.357L273.15 264.872C276.564 268.526 280.934 273.4 284.585 276.635ZM249.268 294.558C243.462 289.824 237.843 284.862 232.429 279.684C228.429 276.449 224.661 272.902 220.826 269.488C218.175 267.131 214.476 263.431 211.486 261.683C218.792 255.243 225.712 247.914 233.271 241.682C235.856 239.551 239.137 236.038 241.943 234.36C243.595 246.746 244.829 259.112 246.405 271.499C247.385 279.179 247.879 286.942 249.268 294.558ZM277.605 323.183C273.559 322.354 270.201 322.655 266.174 322.418C246.756 321.281 227.341 320.275 207.92 319.196C215.558 315.48 223.108 311.591 230.568 307.534C234.217 305.588 238.934 303.227 242.351 301.085C242.215 300.478 242.253 300.72 241.747 300.152C238.282 301.631 233.615 304.316 230.192 306.136C222.858 310.093 215.476 313.962 208.047 317.743C207.496 316.835 206.885 315.655 206.363 314.706C208.936 305.134 211.185 295.417 213.717 285.998L214.245 285.793C217.381 286.481 221.798 288.16 225.006 289.263L239.118 293.986C241.361 294.742 243.801 295.431 246.129 296.031C246.531 296.135 246.484 296.51 246.598 297.037L247.401 297.094C248.259 296.34 248.613 296.393 249.743 296.259C250.622 296.539 250.736 296.548 251.47 297.076L251.533 297.238C253.29 296.739 263.044 297.845 265.373 297.834C278.327 297.769 292.682 299.899 305.471 299.66C301.428 303.316 296.795 307.189 292.59 310.685C288.591 314.007 282.294 319.591 277.919 322.25C275.065 318.091 259.001 304.302 254.467 300.388L253.438 301.064C259.361 307.574 270.973 317.499 277.605 323.183ZM331.122 393.655C323.313 395.396 315.985 395.642 308.48 397.127C305.047 397.75 301.361 397.937 298.102 398.583C290.79 400.029 283.193 400.538 275.935 401.728C277.941 398.427 292.144 372.324 293.002 371.84C296.476 375.163 326.534 392.053 330.733 393.522L331.122 393.655ZM218.95 137.716C215.321 136.065 215.02 135.325 211.97 133.614C210.527 132.805 209.018 132.004 207.686 131.036C210.344 124.471 213.305 116.694 216.406 110.362C218.2 106.696 228.255 86.1936 230.663 85.3309C230.16 88.4707 228.765 93.48 228.028 96.9379L218.95 137.716ZM305.857 298.398L285.028 297.324C280.931 297.133 276.789 297.144 272.704 296.835C266.898 296.244 256.811 295.444 251.201 296.172C261.931 289.374 273.717 283.869 284.604 277.336C284.997 277.101 284.528 277.296 284.981 277.129C291.66 284.077 298.789 292.009 305.857 298.398ZM245.822 294.623C241.564 293.418 215.27 285.249 213.998 282.947C212.938 281.025 211.771 267.038 211.758 264.096L212.087 263.594C218.203 269.035 238.342 287.569 246.284 293.956C246.319 294.134 246.354 294.313 246.389 294.491L245.822 294.623ZM212.141 161.008C211.805 162.076 211.429 163.773 210.711 164.511C210.258 164.198 210.189 164.202 210.119 163.412C209.575 157.232 208.948 150.979 208.588 144.79C208.35 140.74 207.746 137.44 207.93 133.382L208.3 132.871C210.287 134.175 216.912 138.107 217.074 139.941C217.577 145.627 212.907 155.547 212.141 161.008ZM210.325 263.774V264.153C210.363 267.677 212.378 277.376 211.521 279.572L210.961 279.546C210.246 278.739 210.059 278.448 209.512 277.516C206.43 272.603 202.551 270.941 210.091 263.868C210.17 263.836 210.246 263.805 210.325 263.774ZM278.918 323.674C283.326 321.221 294.172 310.69 298.792 307.347C301.013 305.742 303.048 303.428 305.898 302.159C302.557 318.572 299.352 334.995 296.004 351.404C295.511 353.816 293.47 365.114 292.404 366.975C291.689 366.399 289.721 358.263 289.414 356.835C286.617 347.986 283.01 331.219 278.918 323.674Z" fill="#E58F28"/>
<path d="M251.533 297.238L251.47 297.076C250.736 296.548 250.622 296.539 249.743 296.259C248.613 296.393 248.259 296.34 247.401 297.094L246.598 297.037C245.857 297.422 242.199 299.632 241.747 300.152C242.253 300.72 242.215 300.478 242.351 301.085C243.272 300.887 246.892 298.99 247.92 298.46C250.23 298.393 251.654 299.821 253.438 301.064L254.467 300.388C253.378 299.316 252.54 298.39 251.533 297.238Z" fill="#E58F28"/>
<path d="M319.684 208.245C318.665 207.275 317.979 206.665 316.77 205.865C311.426 202.328 304.63 205.134 302.921 211.196C302.687 212.028 302.5 212.913 302.31 213.774C297.947 213.996 294.894 214.481 291.967 218.223C290.635 219.928 289.151 226.692 290.79 227.732C291.521 222.386 292.274 217.995 297.868 215.638C304.471 212.855 302.083 220.588 307.246 222.389C308.233 222.733 309.8 223.002 310.818 222.585C310.122 221.621 308.816 221.467 307.572 220.729C304.706 219.022 304.275 216.783 303.446 213.892C304.725 210.149 304.981 209.632 307.648 206.716C311.42 205.77 312.679 205.63 316.299 206.956C317.134 207.876 318.529 209.411 318.713 210.594C319.808 217.651 319.248 228.189 319.206 235.385L319.143 251.289C319.153 254.506 319.456 258.925 318.953 261.97C315.944 264.856 313.052 264.863 311.657 266.452C312.119 266.72 312.211 266.768 312.755 266.749C314.97 266.669 317.292 265.676 318.786 264.086C318.922 263.942 319.596 263.274 319.757 263.252C319.836 263.241 322.073 264.844 322.345 265.011C324.383 266.248 326.683 266.771 329.056 266.672C340.914 266.18 337.224 257.464 339.176 255.922C340.331 255.009 343.012 255.408 344.368 254.421C347.247 252.326 347.64 249.18 349.346 246.344C349.995 245.266 351.257 244.597 352.057 243.627C353.461 241.927 353.943 239.233 353.756 237.093C353.454 233.646 351.831 231.495 349.266 229.332C351.819 222.423 350.245 216.052 342.478 214.179C341.866 214.031 338.235 213.68 338.015 213.436C336.489 211.745 336.624 208.673 334.879 206.991C332.877 205.042 330.575 204.419 327.987 204.25C323.975 204.516 322.538 205.544 319.684 208.245ZM328.234 223.27C334.728 222.003 335.267 221.335 337.957 215.101C347.598 215.07 351.328 221.858 347.524 230.441C350.215 231.839 350.762 233.052 352.47 235.553C352.594 239.19 352.687 240.828 350.093 243.62C349.707 244.03 349.307 244.426 348.894 244.808C347.768 229.907 332.341 233.477 331.315 238.495L331.756 238.932C333.238 238.635 334.701 236.325 335.375 236.143C339.425 235.047 342.466 235.768 345.355 238.745C349.29 244.704 347.441 253.256 339.864 254.241C337.73 254.519 334.139 248.111 331.16 249.762L331.154 250.222C333.609 252.544 337.397 253.039 337.7 257.315C337.831 259.164 336.676 261.174 335.383 262.469C333.509 264.326 330.974 265.362 328.335 265.347C325.082 265.338 323.032 263.718 320.497 261.846L320.624 230.451C320.652 223.779 320.83 216.735 320.402 210.114C323.766 205.956 324.459 205.57 329.948 206.098C334.419 207.466 337.246 211.791 335.85 216.477C334.658 220.477 331.034 220.86 328.234 223.27Z" fill="#E58F28"/>
<path d="M298.539 231.092C295.131 230.935 289.781 230.886 288.49 234.993C286.844 240.232 287.091 248.868 287.952 254.314C288.281 256.4 291.537 258.108 293.245 258.772C293.676 258.894 294.109 259.003 294.546 259.098C299.497 260.151 304.275 256.223 304.699 251.508C305.272 245.101 306.993 232.779 298.539 231.092ZM294.384 257.739C289.502 255.495 288.569 253.219 288.623 247.735C288.667 243.122 287.752 234.983 293.008 232.873C294.081 232.452 296.156 232.403 297.324 232.345C303.873 234.426 303.728 238.571 303.861 244.6C304.013 251.34 302.845 258.419 294.384 257.739Z" fill="#E58F28"/>
<path d="M311.35 249.456C310.17 249.934 310.35 250.76 310.103 251.972C309.464 255.219 308.094 259.929 305.158 261.949C297.254 267.388 285.807 265.273 283.351 255.039C283.095 253.979 282.699 251.298 282.181 250.663L281.833 250.881C280.127 257.454 285.379 263.933 291.597 265.725C292.79 265.851 294.081 265.93 295.283 266.025C295.21 268.439 295.058 270.927 295.311 273.321C292.264 273.167 290.847 273.152 287.863 273.679L287.86 273.911C290.739 274.768 300.478 274.884 303.494 274.557L303.677 274.263C301.709 272.847 298.994 273.387 296.384 273.39C296.419 270.956 296.444 268.523 296.454 266.089C303.13 265.737 307.262 263.775 310.338 257.39C311.322 255.349 312.132 251.638 311.35 249.456Z" fill="#E58F28"/>
<path d="M416.07 117.217L380.69 117.402C378.424 117.431 369.646 116.746 368.154 117.975C369 118.509 369.158 118.448 370.204 118.483L402.257 118.517C404.376 118.517 415.843 118.934 416.529 117.96L416.07 117.217Z" fill="#E58F28"/>
<path d="M422.419 131.169C421.124 131.05 412.583 130.902 411.339 131.033C407.5 131.439 377.757 130.298 376.175 131.523L376.529 131.979C390.163 133.017 404.898 131.636 418.623 132.265C419.77 132.318 421.87 132.603 422.624 131.802L422.419 131.169Z" fill="#E58F28"/>
<path d="M415.736 103.302C412.956 103.148 386.514 102.999 384.641 103.704L384.454 104.183L385.14 104.73C389.298 104.765 414.901 105.143 416.731 104.224L416.727 103.688L415.736 103.302Z" fill="#E58F28"/>
<path d="M317.58 77.8138C317.052 78.4762 316.815 78.6401 316.799 79.4839C317.593 83.339 319.858 89.2376 321.099 93.2136C324.136 102.969 327.183 112.778 330.619 122.393C327.114 120.368 317.469 116.932 313.22 115.215L277.169 100.897C272.306 98.9609 266.297 96.7715 261.621 94.7055L259.83 95.6499C264.345 97.1013 271.768 100.355 276.501 102.229L312.192 116.52C316.134 118.112 320.086 119.68 324.048 121.224C325.794 121.921 328.015 123.049 329.733 123.477C325.066 125.885 319.501 128.158 314.631 130.278L294.565 139.04C291.091 140.526 286.791 142.18 283.459 143.815C283.956 144.229 284.316 144.581 284.876 144.897C288.993 142.942 329.841 125.065 330.363 125.095C331.448 127.916 332.648 136.203 333.19 139.548C334.727 149.502 336.399 159.435 338.206 169.343C338.858 172.913 339.382 177.574 340.345 180.885C341.064 182.946 342.437 182.134 344.023 183.471C345.17 183.898 379.201 184.531 382.709 184.542C381.25 183.195 379.178 183.501 376.976 183.42C380.412 183.372 383.935 183.363 387.36 183.194C384.256 182.827 380.17 182.854 376.99 182.786L356.747 182.373C351.912 182.295 348.249 182.464 343.331 181.906C345.508 179.71 354.608 170.912 355.504 169.282C363.93 169.4 372.357 169.432 380.784 169.377C382.611 169.374 392.782 169.136 393.573 169.555C397.049 171.398 411.303 181.172 412.351 184.01C412.253 183.311 412.44 181.787 412.507 181.019C407.602 177.549 400.063 171.647 395.228 168.896C400.394 169.533 406.545 169.235 411.873 169.281C417.082 169.326 423.184 169.596 428.304 169.251C426.834 170.748 417.042 181.081 416.48 182.21C416.864 183.088 416.874 183.29 417.625 183.808C421.534 178.3 426.171 174.269 429.822 169.168C431.851 174.193 437.417 182.809 440.285 187.674C440.755 187.282 440.971 186.943 441.352 186.463C437.747 180.785 434.675 174.376 430.925 168.553C436.783 164.841 442.666 161.167 448.572 157.53C451.841 155.525 455.75 153.001 459.194 151.517C459.119 150.861 459.164 151.095 458.837 150.483L457.55 150.193C451.818 154.156 436.297 163.745 430.301 166.791C431.059 153.782 430.378 137.589 430.616 124.07C431.705 124.907 432.611 125.935 433.644 126.832C441.158 133.355 448.416 140.308 456.399 146.254L458.769 146.316C451.547 140.684 444.637 134.426 437.765 128.374C435.514 126.391 433.324 124.019 430.647 122.644C430.238 112.017 430.423 97.9763 430.857 87.2197C430.696 87.3988 430.304 87.7039 430.124 87.8536C429.504 87.3333 429.648 86.488 429.543 85.4395C429.146 102.864 429.662 120.58 429.462 138.049C429.348 148.042 429.741 157.822 428.761 167.807C424.925 168.251 397.541 168.628 394.806 167.752C391.514 166.699 386.585 162.255 383.693 160.131C374.415 153.314 365.247 145.826 355.571 139.622C356.062 134.042 355.382 103.117 356.544 101.254L357.013 99.9129L360.165 96.7712L358.991 95.5081C357.731 96.7598 356.477 98.0181 355.23 99.2828L354.316 102.937C346.605 108.795 339.693 116.177 332.09 121.472C330.471 118.578 328.458 111.018 327.291 107.646C324.048 98.2859 321.19 86.8741 317.58 77.8138ZM354.489 168.351C352.494 170.598 350.77 172.245 348.786 174.354C346.435 176.62 344.498 178.422 341.92 180.441C338.914 165.795 336.303 151.503 334.131 136.7C333.924 135.291 332.301 126.28 332.402 125.324L332.797 125.049C337.071 126.601 343.444 132.94 347.563 135.479C350.022 136.994 354.748 139.797 354.77 142.735C354.835 151.294 354.36 159.84 354.489 168.351ZM391.087 168.068C379.518 168.052 367.267 167.845 355.74 168.078C356.106 164.681 355.753 142 356.323 141.411C359.575 144.352 391.233 167.193 391.523 167.759L391.087 168.068ZM354.775 138.769C350.472 135.795 346.548 132.622 342.335 129.708C339.735 127.786 335.746 125.087 333.394 123.119C335.629 120.424 339.563 117.328 342.298 114.947C346.139 111.604 350.339 107.583 354.455 104.676C354.795 112.069 354.325 120.264 354.472 127.733C354.548 131.575 354.285 134.891 354.775 138.769Z" fill="#E58F28"/>
<path d="M360.963 46.5171L360.28 46.4794C360.006 47.2263 360.022 47.4912 359.969 48.2647L366.612 82.9051C361.781 81.5195 317.286 69.0643 316.568 67.8212C317.381 66.6923 318.738 66.1042 319.988 65.4311C319.618 64.8636 319.197 64.6234 318.653 64.2237C314.365 66.8932 311.461 65.8146 307.639 63.3233C307.009 63.5049 306.471 63.6078 305.927 63.9695C307.996 65.3488 310.1 66.6761 312.239 67.95C310.746 68.5798 309.157 69.2061 307.759 70.0071L308.167 71.3791C310.088 70.6926 313.574 68.8206 314.505 71.9671C314.982 73.5846 315.805 78.2594 316.798 79.4839C316.814 78.6401 317.052 78.4762 317.58 77.8138C316.811 74.6822 316.061 72.5263 314.966 69.477C324.914 72.6855 334.748 75.256 344.744 78.2388C349.753 79.7494 354.78 81.2018 359.823 82.5962C362.794 83.4428 366.641 84.6752 369.61 85.0964C366.905 87.0839 361.625 92.8392 358.991 95.5081L360.164 96.7712C364.246 92.2021 369.694 85.8351 375.113 83.0402C375 87.4488 376.04 95.3831 376.57 99.9626C373.758 99.9645 358.627 100.407 357.013 99.9129L356.544 101.254L377.835 101.349C377.684 94.6897 376.428 90.0471 376.486 82.0436C379.779 81.5192 385.648 81.5809 389.133 81.5537L413.012 81.4651C416.468 81.4341 421.731 81.5334 425.052 81.1882C422.865 79.8403 418.764 81.1249 416.81 80.2713L418.179 79.7706C403.814 79.8447 389.451 80.0162 375.088 80.2855C373.526 81.4951 370.431 83.6539 368.427 83.1215C367.43 82.2129 361.897 51.1444 360.963 46.5171Z" fill="#E58F28"/>
<path d="M461.043 163.038C460.742 161.018 461.405 159.568 460.97 157.846L460.39 157.629C459.47 166.968 458.786 176.025 457.089 185.303C455.907 191.767 454.09 197.874 452.532 204.212C449.232 200.997 443.96 190.865 441.352 186.463C440.971 186.943 440.755 187.282 440.285 187.674C441.82 190.712 449.17 202.215 449.226 203.889C447.738 203.867 442.405 200.213 440.491 199.223C439.859 199.406 439.407 199.572 438.751 199.651C443.196 202.801 445.212 203.14 449.193 207.144C448.54 207.656 444.727 210.519 444.456 210.847C433.833 219.421 423.485 228.507 412.924 237.156C411.889 238.004 407.957 241.406 407.206 241.722L406.953 241.5C407.094 240.681 407.188 240.087 407.421 239.291C407.37 238.009 407.283 237.865 406.588 236.777C406.301 238.203 406.046 240.333 405.175 241.386C404.112 241.954 404.015 241.868 402.792 241.324C402.336 241.805 402.342 241.713 402.064 242.295C403.102 242.924 403.377 243.025 403.924 244.086L404.806 245.129L405.1 245.385C405.708 244.856 405.553 245.03 406.605 245.022C406.693 244.592 406.952 244.067 407.3 243.786C419.966 233.555 432.199 222.422 445.001 212.389C446.438 211.687 447.733 209.419 449.349 209.637L449.479 210.537L450.487 211.148C451.693 209.249 452.656 209.204 454.438 207.634C455.104 206.082 454.109 204.572 454.604 202.572C457.892 189.276 460.665 176.814 461.043 163.038Z" fill="#E58F28"/>
<path d="M281.823 153.793C281.26 154.5 280.994 154.726 280.738 155.571C283.193 164.377 285.585 173.199 287.917 182.038C289.309 187.192 291.632 194.882 292.34 199.961C287.87 198.463 285.383 196.79 281.402 195.133L280.279 196.304C282.301 197.326 289.347 200.301 290.059 201.809C289.344 203.476 282.19 206.997 280.175 208.1L281.636 208.794C284.228 207.73 289.499 204.15 291.73 204.032C292.676 204.608 292.837 204.787 293.9 204.918C296.726 203.61 295.138 201.827 295.932 201.479C303.37 198.217 330.569 186.682 336.561 184.762L336.399 183.02C329.986 185.309 299.096 199.338 295.046 199.258C292.404 196.796 283.551 160.079 281.823 153.793Z" fill="#E58F28"/>
<path d="M432.935 342.635L431.264 343.201C434.401 346.391 436.827 350.904 439.491 354.452C445.522 362.488 451.85 372.998 458.377 380.495C442.493 376.989 424.788 373.919 408.671 370.783L393.642 367.735C392.405 367.491 389.939 366.814 388.914 366.757C388.744 367.678 388.74 367.323 389.347 368.333C391.237 368.453 398.778 370.254 401.27 370.77C415.765 373.767 430.276 376.362 444.763 379.343C448.692 380.151 456.803 382.059 460.362 381.897L460.58 381.407C460.138 380.084 434.542 344.173 432.935 342.635Z" fill="#E58F28"/>
<path d="M204.199 176.464C199.187 183.366 194.191 191.298 189.35 198.425C185.066 204.726 179.462 212.36 175.64 218.806C184.696 222.439 193.444 227.753 201.731 231.111L202.37 229.808C197.766 227.216 182.94 220.264 177.877 218.255C187.679 215.536 199.155 208.929 208.562 205.917L208.36 204.302C199.39 208.936 187.572 212.525 178.178 217.005C187.002 205.655 197.004 189.588 205.259 177.428L204.199 176.464Z" fill="#E58F28"/>
<path d="M363.74 270.536L362.718 271.815C363.632 274.245 364.852 276.01 365.847 278.239C368.373 283.902 372.183 290.339 374.559 295.93C375.377 297.684 379.835 305.852 379.428 306.83C377.673 311.052 366.567 315.454 363.494 318.139C364.417 318.262 364.449 318.262 365.119 318.87C367.662 317.306 378.421 310.264 380.584 310.241L381.585 309.965C382.556 310.669 382.28 311.809 382.28 313.015C382.38 311.685 382.21 310.851 383.35 310.024C384.489 310.057 386.296 311.464 387.378 312.166L388.322 311.096C387.233 309.802 385.767 309.963 384.538 307.019C384.513 305.387 387.384 302.571 388.598 301.148L388.226 299.42C386.342 301.187 384.243 305.138 381.297 304.762C379.317 303.7 376.683 296.808 375.564 294.365C371.877 286.731 367.679 277.926 363.74 270.536Z" fill="#E58F28"/>
<path d="M415.409 272.636L414.049 272.664C414.516 277.731 414.574 282.909 415.326 287.87C417.538 302.148 421.333 316.135 426.642 329.573C427.745 332.314 428.79 335.447 430.681 337.647L430.566 338.764L429.988 338.859L428.839 339.302C429.786 340.305 429.738 339.935 429.718 340.967C428.592 342.236 427.739 342.457 426.454 343.442L427.037 344.54C428.4 343.863 429.892 342.878 431.264 343.201L432.936 342.635C433.096 342.527 433.254 342.416 433.409 342.305C434.376 341.6 434.75 341.239 434.914 340.166C434.096 338.906 432.962 338.66 431.837 337.625C422.313 314.682 416.676 297.894 415.409 272.636Z" fill="#E58F28"/>
<path d="M343.302 184.611L342.28 185.538C344.724 188.364 347.114 191.236 349.449 194.152C355.304 201.157 361.174 208.124 367.166 215.01C368.276 216.285 368.088 216.711 367.536 218.162C367.866 219.728 368.626 220.83 368.632 221.96C369.019 223.261 368.894 223.688 369.796 224.409C370.271 222.805 370.638 221.586 370.939 219.943C375.358 222.552 379.035 225.641 383.27 228.504L383.846 227.276C381.641 225.612 374.568 220.619 372.973 218.993C372.706 216.485 375.357 214.923 377.151 213.686C376.787 213.221 376.608 213.132 376.147 212.767C375.095 213.533 372.076 215.802 370.802 215.633C368.418 215.317 353.053 195.752 350.236 192.561C347.71 189.735 346.175 187.414 343.302 184.611Z" fill="#E58F28"/>
<path d="M283.535 147.617L283.411 148.251C284.127 149.147 284.095 148.842 284.202 149.823C289.765 152.997 337.55 181.03 338.139 182.396C337.4 183.049 337.559 182.846 336.399 183.02L336.561 184.761C339.049 184.193 339.925 184.199 342.28 185.538L343.302 184.611L343.33 184.04L344.023 183.471C342.437 182.134 341.064 182.946 340.345 180.885C333.98 177.9 327.601 173.711 321.475 170.117L283.535 147.617Z" fill="#E58F28"/>
<path d="M351.831 344.432L350.101 345.128C357.415 350.255 364.812 355.265 372.289 360.152C374.899 361.874 379.935 365.387 382.552 366.766C380.263 368.501 376.925 370.251 374.327 371.593L375.636 372.384C378.813 371.662 385.661 367.441 389.347 368.333C388.74 367.323 388.744 367.678 388.914 366.757C388.637 366.459 388.745 366.64 388.718 366.14C389.688 365.099 391.735 364.019 393.023 363.26C392.449 363.045 392.142 362.807 391.623 362.481C389.835 362.994 387.639 364.905 386.195 364.988C385.352 364.443 385.622 364.614 385.286 363.323C384.372 364.095 384.653 363.867 384.192 365.146C376.29 362.196 359.65 349.806 351.831 344.432Z" fill="#E58F28"/>
<path d="M354.7 40.9118C350.595 40.0491 335.09 39.1129 331.36 39.2554C323.971 39.5367 290.806 42.0945 285.838 45.0097L285.462 45.66L285.674 46.0876C299.146 42.5088 319.485 41.3369 333.404 41.1065C338.131 41.028 344.855 41.6926 349.923 41.8072C351.54 41.5356 353.649 42.0955 354.7 40.9118Z" fill="#E58F28"/>
<path d="M407.2 60.3851C406.427 61.174 406.803 60.9465 405.491 61.0645C414.635 67.1432 421.05 71.9139 428.951 79.6988C425.379 79.57 421.756 79.6918 418.179 79.7706L416.81 80.2713C418.764 81.1249 422.865 79.8403 425.052 81.1882C426.788 81.8525 429.74 83.2386 429.543 85.4395C429.648 86.488 429.503 87.3333 430.124 87.8536C430.304 87.7039 430.696 87.3988 430.857 87.2197C430.951 85.8186 430.785 84.8524 431.654 83.9659C432.608 84.2397 432.929 84.904 433.551 85.7335C433.737 84.8511 433.569 85.1727 434.475 84.5331C432.701 82.3389 433.934 82.0034 433.238 79.3187C432.692 76.3238 429.262 77.6552 427.959 76.4637C421.482 70.5394 414.875 64.781 407.2 60.3851Z" fill="#E58F28"/>
<path d="M449.479 210.537C448.354 211.81 448.05 212.774 447.271 214.219C438.3 230.859 428.06 246.79 418.698 263.213C418.014 264.413 417.091 265.276 416.555 266.571L417.789 267.139C420.094 265.086 447.575 216.943 450.486 211.148L449.479 210.537Z" fill="#E58F28"/>
<path d="M232.777 82.8908C232.631 83.8124 232.66 83.7909 232.204 84.5894L232.571 84.7973C237.343 87.4814 249.948 90.1459 251.594 93.5721C251.641 94.9609 249.98 97.1804 249.195 98.3919L250.173 99.2087C251.22 97.9121 252.267 96.0303 253.938 95.9657C254.992 96.6234 255.258 97.62 255.789 98.8011C255.814 97.0278 255.333 97.1541 256.14 95.8356C256.033 95.4274 256.191 95.2096 256.336 94.7292C256.745 94.0693 257.608 93.5399 258.26 93.0648C257.763 92.8404 257.985 92.9461 257.602 92.4015C258.121 91.2207 261.193 90.4624 262.443 90.0661L261.883 88.6483L256.283 90.726C257.501 88.8135 258.691 86.7529 259.858 84.7992L258.855 83.7029C256.371 87.0703 256.254 89.5528 251.654 90.5504C247.926 88.8369 234.777 84.8882 232.777 82.8908Z" fill="#E58F28"/>
<path d="M434.475 84.5331C433.569 85.1727 433.737 84.8511 433.551 85.7335C443.304 100.426 451.083 113.024 455.723 130.447C456.317 132.678 457.585 137.01 457.679 139.219C458.014 138.551 458.413 138.307 458.988 137.835C453.577 115.523 447.935 103.224 434.475 84.5331Z" fill="#E58F28"/>
<path d="M370.313 261.182C368.577 262.149 363.431 265.254 361.714 264.632C360.456 264.445 360.968 264.422 359.626 264.971C358.579 265.958 358.401 266.614 357.837 267.937C352.486 271.092 347.146 274.463 341.772 277.645C342.608 278.169 342.461 277.901 342.695 278.665L342.883 278.578C346.386 276.909 356.446 269.855 359.581 269.865L359.892 270.195C358.796 273.241 357.698 276.44 356.507 279.438L357.194 279.904L357.332 281.645C358.023 279.758 360.434 271.032 362.191 270.852L362.718 271.815L363.74 270.536C363.2 269.809 363.198 269.853 362.999 268.983C363.617 268.22 363.642 268.429 364.828 268.11C364.45 267.865 364.351 267.738 364.022 267.43L364.546 266.851C365.574 265.083 368.413 263.891 370.276 262.933L370.313 261.182Z" fill="#E58F28"/>
<path d="M216.004 204.444C215.738 204.357 215.121 204.262 214.818 204.206C213.081 208.315 208.192 230.526 206.613 231.311C204.952 231.158 203.864 230.539 202.37 229.808L201.731 231.111C206.816 233.561 207.49 234.424 205.221 240.182C205.806 241.067 205.958 241.197 206.18 242.207C206.784 239.279 208.309 236.682 209.284 233.626C213.052 233.752 217.931 233.505 221.775 233.419L221.949 233.152C222.544 233.065 223.104 232.995 223.696 232.869C219.656 231.922 219.165 233.037 216.001 232.346C214.175 232.368 210.708 232.703 209.436 231.536C208.926 229.122 214.954 208.01 216.004 204.444Z" fill="#E58F28"/>
<path d="M416.48 182.21C414.705 182.839 413.886 181.998 412.507 181.019C412.44 181.787 412.253 183.311 412.351 184.01L411.952 184.79C411.574 184.862 411.124 184.966 410.749 184.999L412.353 185.365L413.368 185.566C413.529 186.126 413.478 186.127 413.353 186.709L413.534 186.9C414.68 188.402 414.436 188.512 414.296 190.177C413.979 193.927 412.324 199.697 412.238 203.274C412.737 204.558 412.939 204.241 413.413 205.001C414.379 199.772 414.846 193.661 416.023 188.474C416.204 187.675 416.781 187.463 417.377 187.203C419.683 187.317 428.643 193.722 431.15 195.374C431.801 195.245 432.293 194.869 432.866 194.516C429.783 192.608 419.073 186.51 417.625 183.808C416.874 183.29 416.864 183.088 416.48 182.21Z" fill="#E58F28"/>
<path d="M429.988 338.859C428.523 337.185 426.728 336.033 424.859 334.852C412.579 327.098 400.588 318.863 388.322 311.096L387.378 312.166C399.846 320.655 412.64 328.652 425.218 336.979C426.218 337.64 427.802 338.786 428.839 339.302L429.988 338.859Z" fill="#E58F28"/>
<path d="M382.28 313.015C382.28 311.809 382.556 310.669 381.585 309.965L380.584 310.241C381.232 313.575 381.077 316.958 381.453 320.284C382.595 330.399 382.412 340.35 383.217 350.505C383.618 355.569 383.487 359.921 384.192 365.146C384.653 363.867 384.372 364.095 385.286 363.323C385.325 362.348 384.981 359.927 384.989 358.532C385.03 351.426 384.39 344.888 383.789 337.859C383.115 329.975 383.4 320.778 382.28 313.015Z" fill="#E58F28"/>
<path d="M413.534 186.9L413.353 186.709C413.478 186.127 413.529 186.126 413.368 185.566L412.353 185.365C404.625 191.296 396.844 197.158 389.01 202.949C386.13 205.09 378.567 210.5 376.147 212.767C376.608 213.132 376.787 213.221 377.151 213.686C380.214 211.635 382.969 209.163 385.938 206.96C395.023 200.119 404.223 193.431 413.534 186.9Z" fill="#E58F28"/>
<path d="M307.759 70.0071C292.695 76.3944 276.757 82.2354 261.883 88.6483L262.443 90.0662C266.05 88.1571 274.163 85.2116 278.289 83.5545L308.167 71.3791L307.759 70.0071Z" fill="#E58F28"/>
<path d="M256.14 95.8356C255.333 97.1541 255.814 97.0278 255.789 98.8011C262.044 109.678 267.487 124.4 273.539 135.177L273.992 135.25C274.593 134.613 274.359 134.232 274.327 133.109C268.211 121.003 262.392 107.707 256.14 95.8356Z" fill="#E58F28"/>
<path d="M407.2 60.3851C401.631 56.0695 379.478 45.2445 372.788 44.6713C371.335 44.7169 370.676 44.4979 369.567 45.165C377.555 47.726 384.764 49.9601 392.323 53.7867C395.433 55.3564 398.509 56.9942 401.548 58.6985C402.427 59.1995 404.891 60.8057 405.491 61.0645C406.803 60.9465 406.427 61.174 407.2 60.3851Z" fill="#E58F28"/>
<path d="M353.923 45.0062C349.093 47.9118 342.536 51.2893 337.531 54.0146C333.954 55.9619 322.146 63.1324 318.653 64.2237C319.197 64.6234 319.618 64.8636 319.988 65.4311C330.008 59.6381 344.808 51.5495 355.036 46.3471C354.677 45.7907 354.364 45.4939 353.923 45.0062Z" fill="#E58F28"/>
<path d="M281.75 49.0657C279.906 48.9154 281.155 49.9943 280.086 49.2512C277.374 52.4904 273.872 58.8061 271.584 62.6261L258.855 83.7029L259.858 84.7992C266.518 73.4479 274.66 60.0822 281.75 49.0657Z" fill="#E58F28"/>
<path d="M372.788 44.6713C370.843 43.9938 368.506 43.5146 366.489 43.0421C363.04 42.2344 363.758 42.048 361.876 39.5567C359.375 38.1091 357.95 39.8583 356.302 41.0049C355.662 40.9678 355.128 40.9368 354.7 40.9118C353.649 42.0955 351.54 41.5356 349.923 41.8072C351.934 42.0002 354.51 42.0322 356.312 42.6889L356.63 43.2029C356.122 44.2121 355.01 44.5457 353.923 45.0062C354.365 45.4939 354.677 45.7907 355.036 46.3471C356.499 45.7028 357.149 45.4072 358.496 44.5511C359.069 45.8591 359.536 46.8988 359.969 48.2647C360.023 47.4912 360.006 47.2263 360.28 46.4794L360.963 46.5171C361.582 42.7088 367.021 44.6074 369.567 45.1651C370.676 44.4979 371.335 44.7169 372.788 44.6713Z" fill="#E58F28"/>
<path d="M274.327 133.109C274.359 134.232 274.593 134.613 273.992 135.25L273.54 135.177C274.514 137.104 277.859 143.335 277.814 145.199C277.653 146.643 277.916 146.103 276.701 147.185L277.004 147.505L278.447 147.528C278.89 148.109 278.745 147.941 278.684 148.892C279.498 151.143 280.086 153.274 280.738 155.571C280.994 154.726 281.26 154.5 281.823 153.793C281.535 152.108 280.671 150.494 281.469 149.136C282.769 148.976 282.858 149.261 284.203 149.823C284.095 148.842 284.127 149.147 283.412 148.251L283.535 147.617C282.772 146.877 282.918 147.219 282.725 146.279C283.386 145.347 283.728 145.412 284.876 144.897C284.316 144.581 283.956 144.229 283.459 143.815C279.213 145.832 275.656 136.002 274.327 133.109Z" fill="#E58F28"/>
<path d="M406.433 268.125C398.174 266.947 385.433 267.341 376.889 267.003C373.622 266.874 367.325 266.348 364.546 266.851L364.022 267.43C364.351 267.738 364.45 267.865 364.828 268.11L403.722 269.113C405.473 268.863 405.401 269.17 406.433 268.125Z" fill="#E58F28"/>
<path d="M369.796 224.409C368.894 223.688 369.019 223.261 368.632 221.96C368.684 225.905 361.368 261.613 359.626 264.971C360.968 264.422 360.456 264.445 361.714 264.632C362.526 261.608 362.862 258.597 363.576 255.649C366.085 245.296 367.798 234.858 369.796 224.409Z" fill="#E58F28"/>
<path d="M426.454 343.442L402.945 356.158C400.651 357.405 393.57 361.101 391.623 362.481C392.142 362.807 392.449 363.045 393.023 363.26C394.529 362.541 396.104 361.703 397.543 360.854C407.208 355.161 417.409 350.268 427.037 344.54L426.454 343.442Z" fill="#E58F28"/>
<path d="M403.924 244.086C401.769 244.571 397.703 246.96 395.546 248.104L379.28 256.689C377.091 257.837 372.405 260.414 370.313 261.182L370.276 262.933C381.339 257.901 393.833 249.806 404.806 245.129L403.924 244.086Z" fill="#E58F28"/>
<path d="M461.043 163.038C461.547 160.6 461.379 154.79 461.948 153.524C463.894 149.196 465.576 148.778 461.045 145.905C460.653 145.656 459.39 139.502 458.988 137.835C458.413 138.307 458.014 138.551 457.679 139.219C458.102 140.908 459.336 144.977 458.769 146.316L456.399 146.254C457.598 147.061 457.527 146.773 458.12 147.94C458.065 149.019 457.976 149.192 457.55 150.193L458.837 150.483C459.164 151.095 459.12 150.861 459.194 151.517C461.174 153.607 459.977 155.045 460.391 157.629L460.97 157.846C461.405 159.568 460.742 161.018 461.043 163.038Z" fill="#E58F28"/>
<path d="M412.885 273.245C411.773 272.895 412.025 273.041 410.702 273.365C402.79 280.774 395.821 291.591 388.226 299.42L388.598 301.148C394.106 294.846 399.413 288.222 404.998 281.969C407.346 279.341 410.332 275.538 412.885 273.245Z" fill="#E58F28"/>
<path d="M285.838 45.0097C282.671 42.4357 281.298 42.0404 278.96 45.8724C277.953 47.5216 277.751 47.3178 276.318 48.333C277.517 49.2629 277.703 48.7518 278.684 49.2578C278.982 49.1727 279.732 49.2382 280.086 49.2512C281.155 49.9943 279.906 48.9154 281.75 49.0657C284.101 48.3868 288.942 52.6771 291.122 53.9028C291.382 53.2838 291.53 53.2772 292.106 52.9202C290.724 51.3184 284.522 49.0765 284.921 46.5734L285.674 46.0876L285.462 45.66L285.838 45.0097Z" fill="#E58F28"/>
<path d="M412.238 203.274C411.983 207.638 410.098 213.519 409.916 217.154C409.725 220.954 406.274 234.052 406.588 236.777C407.283 237.865 407.37 238.009 407.421 239.291C408.132 236.684 408.425 232.977 409.016 230.246C410.794 222.028 411.74 213.14 413.413 205.001C412.939 204.241 412.737 204.558 412.238 203.274Z" fill="#E58F28"/>
<path d="M392.799 183.247C391.248 183.222 388.84 183.106 387.36 183.194C383.935 183.363 380.412 183.371 376.976 183.42C379.178 183.501 381.25 183.195 382.708 184.542L384.91 184.583C392.377 185.141 403.028 184.929 410.749 184.999C411.124 184.966 411.574 184.862 411.952 184.79L412.351 184.01C408.693 183.268 396.972 183.302 392.799 183.247Z" fill="#E58F28"/>
<path d="M392.799 183.247C391.248 183.222 388.841 183.106 387.36 183.194C383.935 183.363 380.412 183.371 376.976 183.42C379.178 183.501 381.25 183.195 382.709 184.542L384.91 184.583C387.544 184.26 394.168 184.221 397.187 184.097C395.505 184.016 394.643 184.037 393.095 183.377L392.799 183.247Z" fill="#E58F28"/>
<path d="M211.815 166.076C211.249 165.135 211.628 165.465 210.663 165.019C209.334 165.518 209.388 165.681 209.281 167.157C208.891 171.174 205.654 172.899 204.199 176.464L205.259 177.428C206.17 176.41 209.043 171.539 209.79 170.185C210.081 171.619 210.353 173.056 210.603 174.497L211.91 173.898C211.872 172.437 211.616 171.517 211.287 170.1C213.093 170.777 215.719 171.283 217.672 171.709C218.51 170.976 218.624 170.873 219.719 170.725C217.051 169.884 214.099 169.615 211.96 168.452C211.41 167.47 211.65 167.37 211.815 166.076Z" fill="#E58F28"/>
<path d="M412.914 260.49C412.86 261.546 412.956 262.246 412.332 263.06C412.639 264.576 413.103 265.828 412.573 267.228C411.011 268.593 408.507 267.716 406.433 268.125C405.401 269.17 405.473 268.864 403.722 269.113C406.09 269.335 408.88 269.6 411.206 269.136C412.484 268.858 413.905 268.434 415.015 269.055C415.865 270.632 415.041 271.365 414.049 272.664L415.409 272.636C415.669 272.553 415.928 272.466 416.186 272.376C420.002 271.053 418.223 269.647 417.79 267.139L416.555 266.571C414.15 265.329 414.211 263.273 412.914 260.49Z" fill="#E58F28"/>
<path d="M219.719 170.725C218.624 170.873 218.51 170.976 217.672 171.709C225.8 174.308 234.024 175.986 242.111 178.353C242.87 177.566 243.01 177.518 244.047 177.155C238.124 176.263 225.958 172.448 219.719 170.725Z" fill="#E58F28"/>
<path d="M217.137 199.627C216.469 200.219 216.833 200.116 216.08 200.117C215.504 199.073 215.15 196.172 214.865 194.777C214.814 195.813 214.966 196.929 214.435 197.6L214.074 197.534C214.22 200.655 213.745 200.684 211.571 203.243L208.36 204.302L208.562 205.917C210.622 204.971 212.748 203.602 214.818 204.206C215.121 204.262 215.738 204.357 216.004 204.444L216.415 204.3C217.187 205.039 217.969 205.771 218.757 206.495L219.719 205.669C219.165 204.339 217.849 203.984 217.352 202.414C217.741 201.202 217.574 201.616 218.798 200.612C217.51 200.235 217.779 200.523 217.137 199.627Z" fill="#E58F28"/>
<path d="M402.792 241.324C402.167 240.339 385.653 228.31 383.846 227.276L383.27 228.504C388.461 232.492 396.581 238.792 402.064 242.295C402.342 241.713 402.336 241.805 402.792 241.324Z" fill="#E58F28"/>
<path d="M211.91 173.898L210.603 174.497C211.796 182.127 212.783 190.013 214.074 197.534L214.435 197.6C214.966 196.929 214.815 195.813 214.865 194.777C214.454 192.668 214.251 189.103 213.891 186.728C213.264 182.582 212.325 178.007 211.91 173.898Z" fill="#E58F28"/>
<path d="M292.106 52.9202C291.53 53.2772 291.382 53.2838 291.122 53.9028C293.922 55.8223 303.655 62.7986 305.927 63.9696C306.471 63.6078 307.009 63.505 307.639 63.3233C302.554 59.8844 297.283 56.1603 292.106 52.9202Z" fill="#E58F28"/>
<path d="M406.605 245.022C405.553 245.03 405.708 244.856 405.1 245.385C405.999 246.809 411.771 261.069 412.332 263.06C412.956 262.246 412.86 261.546 412.914 260.49C411.006 257.072 408.944 249.497 406.605 245.022Z" fill="#E58F28"/>
<path d="M342.669 338.416L341.778 339.527C343.774 340.859 348.423 343.768 350.101 345.128L351.832 344.432C349.152 342.467 345.478 340.071 342.669 338.416Z" fill="#E58F28"/>
<path d="M244.177 179.183C245.073 180.067 246.291 180.406 247.503 180.039C248.211 179.132 248.025 179.551 248.047 178.263C247.718 177.155 246.196 175.861 245.006 176.037C244.598 176.707 244.604 177.004 244.047 177.155C243.01 177.517 242.87 177.566 242.111 178.353C242.892 178.477 243.25 178.482 243.956 178.868L244.177 179.183Z" fill="#E58F28"/>
<path d="M414.049 272.664C415.041 271.365 415.865 270.632 415.015 269.055C413.905 268.434 412.484 268.858 411.206 269.136L412.44 269.453C413.123 270.9 411.628 272.186 410.702 273.365C412.025 273.041 411.773 272.895 412.885 273.245C413.532 272.602 413.155 272.786 414.049 272.664Z" fill="#E58F28"/>
<path d="M432.866 194.516C432.293 194.869 431.801 195.245 431.15 195.373C433.654 196.711 436.335 198.444 438.75 199.651C439.407 199.572 439.858 199.406 440.491 199.223C438.974 198.024 435.364 196.404 432.866 194.516Z" fill="#E58F28"/>
<path d="M261.621 94.7055C260.463 94.0798 259.453 93.6108 258.26 93.0648C257.609 93.5399 256.745 94.0693 256.337 94.7292C257.425 95.0077 258.782 95.3185 259.83 95.6499L261.621 94.7055Z" fill="#E58F28"/>
</svg>
