<svg width="65" height="33" viewBox="0 0 65 33" fill="none" xmlns="http://www.w3.org/2000/svg">
<path d="M64.288 12.7376C64.288 12.8693 64.2017 12.9806 64.0812 13.02C64.0511 13.0295 64.0196 13.0377 63.9853 13.0377H62.6882C60.5815 13.2047 59.0105 13.9841 58.4913 14.4987C57.9585 15.0255 57.1463 16.7174 57.0134 18.7908V19.9491C57.0134 20.1147 56.8778 20.2491 56.7107 20.2491C56.5436 20.2491 56.4093 20.1147 56.4093 19.9491V18.7908C56.2751 16.7174 55.4629 15.0255 54.9314 14.4987C54.4123 13.9841 52.8412 13.2047 50.7332 13.0377H49.4374C49.4032 13.0377 49.3717 13.0309 49.3415 13.0214C49.221 12.982 49.1347 12.8693 49.1347 12.7376C49.1347 12.6059 49.221 12.4945 49.3415 12.4552C49.3717 12.4456 49.4032 12.4375 49.4374 12.4375H50.7332C52.8412 12.2705 54.4123 11.4911 54.9314 10.9765C55.4629 10.4496 56.2751 8.75776 56.4093 6.68435V5.52611C56.4093 5.36046 56.5436 5.22603 56.7107 5.22603C56.8778 5.22603 57.0134 5.36046 57.0134 5.52611V6.68435C57.1463 8.75776 57.9585 10.4496 58.4913 10.9765C59.0105 11.4911 60.5815 12.2705 62.6882 12.4375H63.9853C64.0196 12.4375 64.0511 12.4443 64.0812 12.4538C64.2017 12.4932 64.288 12.6059 64.288 12.7376Z" fill="white"/>
<path d="M47.4862 0.298573C47.1615 1.29251 46.9561 1.74874 46.5219 2.64084C46.0521 3.2315 45.7055 3.86154 45.2248 4.45219C43.2907 6.83248 39.7719 10.3357 36.2845 9.42459C36.2503 9.58346 36.7448 9.71245 36.868 9.77899C37.6652 10.2081 38.3076 10.0709 38.9349 10.2135C39.0254 10.2339 39.1116 10.1266 39.0075 10.3289C38.7884 10.7539 38.2172 11.3907 37.857 11.7479C34.5436 15.0365 27.4005 19.937 25.3815 20.2289C23.4474 20.3117 22.3996 20.2791 20.7038 19.683C20.5902 19.8093 20.9079 19.9098 20.9901 19.975C22.0955 20.8617 23.3502 20.8372 24.5994 21.1902C19.6218 24.6962 15.3057 26.9027 12.0759 26.3962C12.0348 26.5401 12.2047 26.5265 12.28 26.5578C12.9101 26.8212 13.5128 27.0031 14.1812 27.0534C13.7004 27.6644 12.8156 27.6359 12.1129 27.3956C10.9007 26.9787 9.4885 25.4511 8.01056 26.016C6.90108 26.4396 5.0766 28.8023 3.97671 29.8899C3.60688 30.2552 3.18637 30.8309 2.77134 31.1513C2.61656 31.2695 0.333226 32.3598 0.288025 32.2362C4.32188 28.5918 7.68457 23.9765 11.5212 20.2791C16.0043 15.9585 25.2911 8.78913 33.3314 5.02384C33.5505 4.92201 34.6491 4.50515 34.7408 4.41961C34.7696 4.39245 35.7599 3.97288 35.6969 3.94708C26.732 7.17194 11.5814 17.0556 6.06418 25.0221C9.04197 17.812 17.7617 9.80479 23.9953 5.90508C27.7374 3.56417 33.0081 1.36991 37.5323 0.693703C40.3197 0.276848 44.6974 0.166864 47.4862 0.298573Z" fill="white" stroke="white" stroke-width="0.492" stroke-miterlimit="10"/>
</svg>
